<?xml version="1.0" encoding="utf-8"?>
<!-- Generator: Adobe Illustrator 26.0.0, SVG Export Plug-In . SVG Version: 6.00 Build 0)  -->
<svg version="1.1" id="Layer_1" xmlns="http://www.w3.org/2000/svg" xmlns:xlink="http://www.w3.org/1999/xlink" x="0px" y="0px"
	 viewBox="0 0 799 600" style="enable-background:new 0 0 799 600;" xml:space="preserve">
<style type="text/css">
	.st0{fill:url(#SVGID_1_);}
	.st1{fill:url(#SVGID_00000054962564286990988560000016480688286276792208_);}
</style>
<linearGradient id="SVGID_1_" gradientUnits="userSpaceOnUse" x1="208.9926" y1="508.6012" x2="208.9926" y2="64.599" gradientTransform="matrix(1 0 0 -1 0 603)">
	<stop  offset="0" style="stop-color:#D7DF23"/>
	<stop  offset="1" style="stop-color:#8DC63F"/>
</linearGradient>
<path class="st0" d="M404,65.3l-37.6,86l-53,121.3L280,348.9V182H123.9V65.3H404z M234.6,413.3h-0.1c-1.4,0.1-2.9,0.1-4.3,0.1H229
	c-48.3-0.4-88.7-36.9-94-85c-0.4-3.4-0.6-6.9-0.6-10.3c0-6.1,0.6-12.1,1.7-18.1c0,0,0-0.1,0-0.1H14.8c-0.5,6-0.8,12-0.8,18.2
	c-0.1,51.8,18.6,102,52.5,141.1c2.5,2.8,5,5.6,7.6,8.3c2.6,2.7,5.3,5.3,8,7.9c24.1,22.7,53.2,39.5,84.8,49.2l0.6,0.2
	c10.7,3,21.5,5.4,32.5,7l53-121.1C247,412.1,240.8,413,234.6,413.3z"/>
<linearGradient id="SVGID_00000060729146660147242960000006157345784434338954_" gradientUnits="userSpaceOnUse" x1="497.2348" y1="537.74" x2="497.2348" y2="68.24" gradientTransform="matrix(1 0 0 -1 0 603)">
	<stop  offset="0" style="stop-color:#F7941D"/>
	<stop  offset="1" style="stop-color:#ED1C24"/>
</linearGradient>
<path style="fill:url(#SVGID_00000060729146660147242960000006157345784434338954_);" d="M579.8,65.3H415.2l-40.7,93l-55.4,126.8
	l-43.4,99.2c-0.8,2.1-1.7,4.2-2.7,6.2l-6.9,15.7L210.7,533l0,0c2.9,0.3,5.8,0.6,8.7,0.8c7.8,0.6,15.8,0.9,23.9,0.9h189.9
	c13.9-29.2,4.4-64.2-22.4-82.3l0,0c1.5-2.9,3-5.8,4.3-8.9l6.4-16.6l33.8-88h-0.2l26-68.4c0.1-0.6,0.3-1.2,0.7-1.8
	c1.5-2.6,4.9-3.5,7.5-1.9c1.3,0.8,2.2,2,2.5,3.5c0.2,0.8,0.2,1.7,0,2.6v162.7c-9.6,4.9-13.4,16.7-8.5,26.3
	c4.9,9.6,16.7,13.4,26.3,8.5c9.6-4.9,13.4-16.7,8.5-26.3c-1.7-3.3-4.3-6.1-7.6-8V271.6c0-3,2.5-5.5,5.5-5.5c1.6,0,3.1,0.7,4.2,1.9
	c0.6,1.1,1.1,2.3,1.3,3.5l24.8,67.3h-0.2l43.8,114l0,0c-26.3,18.3-35.4,52.9-21.6,81.8h215.5v-3L579.8,65.3z"/>
</svg>
