<svg xmlns="http://www.w3.org/2000/svg" xmlns:xlink="http://www.w3.org/1999/xlink" viewBox="0 0 799.02 799.02"><defs><style>.cls-1{fill:none;}.cls-2{fill:url(#linear-gradient);}.cls-3{fill:#231f20;}.cls-4{fill:#fff;}.cls-5{fill:url(#linear-gradient-2);}.cls-6{fill:url(#linear-gradient-3);}.cls-7{fill:url(#linear-gradient-4);}.cls-8{fill:url(#linear-gradient-5);}</style><linearGradient id="linear-gradient" x1="220.51" y1="136.87" x2="220.51" y2="553.92" gradientUnits="userSpaceOnUse"><stop offset="0" stop-color="#d7df23"/><stop offset="1" stop-color="#8dc63f"/></linearGradient><linearGradient id="linear-gradient-2" x1="761.01" y1="109.5" x2="761.01" y2="550.5" gradientUnits="userSpaceOnUse"><stop offset="0" stop-color="#f7941d"/><stop offset="1" stop-color="#ed1c24"/></linearGradient><linearGradient id="linear-gradient-3" x1="491.26" y1="109.5" x2="491.26" y2="550.5" xlink:href="#linear-gradient-2"/><linearGradient id="linear-gradient-4" x1="34.57" y1="635.96" x2="412.93" y2="635.96" xlink:href="#linear-gradient-2"/><linearGradient id="linear-gradient-5" x1="417.91" y1="635.96" x2="762.06" y2="635.96" xlink:href="#linear-gradient"/></defs><g id="Layer_2" data-name="Layer 2"><g id="Layer_1-2" data-name="Layer 1"><rect class="cls-1" width="799.02" height="799.02"/><path class="cls-2" d="M403.65,109.5l-35.31,80.78L318.55,304.17l-31.36,71.74V219.13H140.6V109.5ZM244.59,436.43h-.13c-1.35.07-2.71.1-4.08.11h-1.11A89.49,89.49,0,0,1,151,356.73a91,91,0,0,1-.52-9.68,88.72,88.72,0,0,1,1.62-17s0-.05,0-.07h-114q-.71,8.43-.71,17.05A201.85,201.85,0,0,0,86.75,479.6q3.47,4,7.14,7.83t7.49,7.4A202.54,202.54,0,0,0,181.07,541l.52.15a234.5,234.5,0,0,0,30.53,6.53l49.74-113.79A88.4,88.4,0,0,1,244.59,436.43Z"/><path class="cls-3" d="M578.32,473.67v0l-41.17-107.1h.22L514,303.29a9.86,9.86,0,0,0-1.22-3.32,5.16,5.16,0,0,0-9.1,3.33V457.76a18.36,18.36,0,1,1-17.56-.46V304.5a4.88,4.88,0,0,0,0-2.4,5.15,5.15,0,0,0-9.44-1.44,5,5,0,0,0-.63,1.65l-24.41,64.23h.22L420.13,449.2l-6,15.62q-1.9,4.29-4.05,8.36h0a61.4,61.4,0,0,1,21.05,77.31H558a61.39,61.39,0,0,1,20.36-76.83Z"/><path class="cls-4" d="M222.13,548.9v1.6H252.7q-11.46,0-22.41-.84Q226.18,549.35,222.13,548.9Z"/><polygon class="cls-5" points="760.39 547.64 760.39 550.5 761.64 550.5 760.39 547.64"/><path class="cls-4" d="M568.86,109.5H414.2L376,196.89,323.94,316l-40.73,93.17a48,48,0,0,1-2.54,5.82l-6.47,14.79L222.14,548.88v0q4.05.45,8.16.76,11,.84,22.41.84H431.12a61.4,61.4,0,0,0-21.05-77.31h0q2.15-4.06,4.05-8.36l6-15.62,31.77-82.66h-.22l24.41-64.23a5,5,0,0,1,.63-1.65,5.15,5.15,0,0,1,9.44,1.44,4.88,4.88,0,0,1,0,2.4V457.3a18.35,18.35,0,1,0,17.56.46V303.3a5.16,5.16,0,0,1,9.1-3.33,9.86,9.86,0,0,1,1.22,3.32l23.32,63.25h-.22l41.17,107.1v0A61.39,61.39,0,0,0,558,550.5H760.39v-2.86Z"/><path class="cls-6" d="M568.86,109.5H414.2L376,196.89,323.94,316l-40.73,93.17a48,48,0,0,1-2.54,5.82l-6.47,14.79L222.14,548.88v0q4.05.45,8.16.76,11,.84,22.41.84H431.12a61.4,61.4,0,0,0-21.05-77.31h0q2.15-4.06,4.05-8.36l6-15.62,31.77-82.66h-.22l24.41-64.23a5,5,0,0,1,.63-1.65,5.15,5.15,0,0,1,9.44,1.44,4.88,4.88,0,0,1,0,2.4V457.3a18.35,18.35,0,1,0,17.56.46V303.3a5.16,5.16,0,0,1,9.1-3.33,9.86,9.86,0,0,1,1.22,3.32l23.32,63.25h-.22l41.17,107.1v0A61.39,61.39,0,0,0,558,550.5H760.39v-2.86Z"/><path class="cls-7" d="M49.93,691.33A40.17,40.17,0,0,1,34.57,679l12.29-14.78q9.62,13.29,23.07,13.29,18.1,0,18.1-21.42V596H46.69v-18.1h62.92v77q0,20.42-10,30.63T70.43,695.73A47.71,47.71,0,0,1,49.93,691.33Zm89.9-113.48h21.58V694.07H139.83Zm53,0h50.8q18.58,0,33,7.23A53.45,53.45,0,0,1,299,605.5q8,13.2,8,30.46t-8,30.47a53.57,53.57,0,0,1-22.41,20.42q-14.44,7.21-33,7.22h-50.8Zm49.8,98a49.43,49.43,0,0,0,22.5-4.9A35,35,0,0,0,280,657a44.78,44.78,0,0,0,0-42,35.13,35.13,0,0,0-14.94-14,49.43,49.43,0,0,0-22.5-4.89H214.37v79.69ZM340,691.91q-12.54-3.81-19.84-10.13L327.59,665a58.72,58.72,0,0,0,17.52,9.22,63.63,63.63,0,0,0,20.83,3.57q13,0,19.34-4.15t6.4-11a10.65,10.65,0,0,0-3.57-8.22,25.18,25.18,0,0,0-9.05-5.06q-5.47-1.83-14.94-4.15a173.93,173.93,0,0,1-21.5-6.31,35.41,35.41,0,0,1-14.12-9.88q-5.89-6.72-5.89-18.18a31,31,0,0,1,5.23-17.51q5.24-7.89,15.77-12.54t25.82-4.65a83.51,83.51,0,0,1,20.92,2.66,57.8,57.8,0,0,1,17.76,7.64l-6.81,16.77a67.11,67.11,0,0,0-15.93-6.81,59.7,59.7,0,0,0-16.11-2.33q-12.78,0-19,4.32A13.32,13.32,0,0,0,344,609.9,10.34,10.34,0,0,0,347.6,618a25.86,25.86,0,0,0,9,5q5.49,1.83,14.95,4.15a157,157,0,0,1,21.25,6.23A36.41,36.41,0,0,1,407,643.27q5.89,6.63,5.9,17.93a30.65,30.65,0,0,1-5.23,17.43q-5.24,7.8-15.86,12.45t-25.9,4.65A88.55,88.55,0,0,1,340,691.91Z"/><path class="cls-8" d="M509.72,667.17H451.61l-11.46,26.9H417.91L470.2,577.85h21.25l52.47,116.22H521.34Zm-7.14-16.93-21.92-50.8-21.75,50.8Zm132.15,43.83L611,660a41.52,41.52,0,0,1-4.49.17H580.27v33.87H558.69V577.85H606.5q15.11,0,26.32,5A38.35,38.35,0,0,1,650,597.11q6,9.3,6,22.08,0,13.13-6.39,22.58t-18.35,14.11L658,694.07Zm-7.81-92q-7.3-6-21.41-6H580.27v46.32h25.24q14.1,0,21.41-6.06t7.31-17.19Q634.23,608.07,626.92,602.09Zm75-6H663.45V577.85h98.61v18.27H723.55v98H702Z"/></g></g></svg>