<svg xmlns="http://www.w3.org/2000/svg" xmlns:xlink="http://www.w3.org/1999/xlink" viewBox="0 0 11163.6 1926.25"><defs><style>.cls-1{fill:url(#linear-gradient);}.cls-2{fill:url(#linear-gradient-2);}.cls-3{fill:#fff;}</style><linearGradient id="linear-gradient" x1="799.92" y1="125.78" x2="799.92" y2="1947.42" gradientUnits="userSpaceOnUse"><stop offset="0" stop-color="#d7df23"/><stop offset="1" stop-color="#8dc63f"/></linearGradient><linearGradient id="linear-gradient-2" x1="1982.51" x2="1982.51" y2="1926.25" gradientUnits="userSpaceOnUse"><stop offset="0" stop-color="#f7941d"/><stop offset="1" stop-color="#ed1c24"/></linearGradient></defs><g id="Layer_2" data-name="Layer 2"><g id="Layer_1-2" data-name="Layer 1"><path class="cls-1" d="M1599.84,6.25,1445.61,359.09,1228.13,856.55l-137,313.35V485.1H450.86V6.25Zm-694.76,1428a2.55,2.55,0,0,1-.57,0c-5.9.31-11.84.44-17.82.48H885c-1,0-2.09,0-3.14,0-129.12-1-243.34-64.65-313.75-162a388.52,388.52,0,0,1-71.72-186.59,396.39,396.39,0,0,1-2.27-42.29,387.8,387.8,0,0,1,7.07-74.16c0-.09.05-.22.05-.31H3.1Q0,1006.2,0,1043.84c0,221.37,81.29,423.74,215.64,579q15.13,17.49,31.19,34.2t32.72,32.32a884.62,884.62,0,0,0,348.08,201.5l2.27.65A1023.25,1023.25,0,0,0,763.25,1920l217.26-497A386,386,0,0,1,905.08,1434.25Z"/><path class="cls-2" d="M2321.46,0H1645.92L1479.06,381.71,1251.67,901.93l-177.91,407a209.12,209.12,0,0,1-11.09,25.42l-28.26,64.6L807,1919.17l0,.09q17.7,2,35.64,3.32,47.83,3.68,97.89,3.67h779.32a268.19,268.19,0,0,0-91.94-337.68v0q9.36-17.74,17.69-36.51l26.25-68.23,138.77-361h-1l106.62-280.55A21.79,21.79,0,0,1,1919,835a22.5,22.5,0,0,1,41.23,6.29,21.13,21.13,0,0,1,0,10.48v667.42a80.16,80.16,0,0,0,45.47,151c37.74-4.1,67.88-35.2,70.94-73a80,80,0,0,0-39.71-76V846.5A22.53,22.53,0,0,1,2076.68,832c3.32,3.93,5.33,14.5,5.33,14.5l101.86,276.27h-1l179.83,467.8,0,.13a268.16,268.16,0,0,0-88.93,335.59h884.2v-12.49Z"/><path class="cls-3" d="M3538.11,1556q-100.46-47.09-164.44-132.44l131.55-158.22q103.08,142.25,247.11,142.22,193.74,0,193.77-229.33V534.69H3503.44V340.92H4177.2v824.87q0,218.65-106.66,328t-312.88,109.33Q3638.53,1603.11,3538.11,1556ZM4500.74,340.92h231.1V1585.33h-231.1Zm567.07,0h544q199.08,0,353.77,77.33t240,218.67q85.33,141.32,85.33,326.21t-85.33,326.21q-85.32,141.32-240,218.66t-353.77,77.33h-544Zm533.32,1048.85q136.86,0,240.88-52.44T6002,1188q56-96.87,56-224.88t-56-224.89q-56-96.87-160-149.32t-240.88-52.45H5298.91v853.3Zm1042.61,172.45q-134.23-40.87-212.44-108.44l80-179.55q76.43,60.46,187.56,98.66t223.1,38.23q138.66,0,207.11-44.46t68.44-117.32q0-53.34-38.22-88t-96.89-54.22q-58.66-19.55-160-44.44-142.26-33.75-230.22-67.55T6521.08,889.35q-63.12-72-63.11-194.66,0-103.08,56-187.56t168.89-134.21q112.86-49.76,276.43-49.78a893.53,893.53,0,0,1,224,28.45Q7293.5,380,7373.5,433.36l-72.88,179.56A720.62,720.62,0,0,0,7130,540q-88.9-24.85-172.44-24.89-136.91,0-203.55,46.23T6687.3,684q0,53.34,38.22,87.11t96.88,53.33q58.68,19.59,160,44.44,138.68,32,227.55,66.68a390,390,0,0,1,152,105.77q63.07,71.12,63.11,192,0,103.11-56,186.67t-169.78,133.32q-113.77,49.76-277.32,49.78Q6778,1603.11,6643.74,1562.22Z"/><path class="cls-3" d="M8461.47,1297.34h-622.2l-122.67,288H7478.39l560-1244.41h227.54l561.77,1244.41H8585.92ZM8385,1116,8150.38,572l-232.89,544Zm1415.06,469.32-254.21-364.44q-16,1.8-48,1.78H9217v362.66H8985.89V340.92h512q161.75,0,281.77,53.33t184,152.89q64,99.57,64,236.43,0,140.48-68.44,241.78t-196.44,151.1L10049,1585.33Zm-83.55-984.86q-78.24-64-229.33-64H9217v496h270.21q151.08,0,229.33-64.89t78.22-184Q9794.76,664.5,9716.54,600.47Zm803.52-64h-412.44V340.92h1056V536.47h-412.44V1585.33h-231.1Z"/></g></g></svg>