<?xml version="1.0" encoding="UTF-8"?>
<svg id="Layer_1" xmlns="http://www.w3.org/2000/svg" version="1.1" xmlns:xlink="http://www.w3.org/1999/xlink" viewBox="0 0 27 26">
  <!-- Generator: Adobe Illustrator 29.5.1, SVG Export Plug-In . SVG Version: 2.1.0 Build 141)  -->
  <defs>
    <style>
      .st0 {
        fill: url(#linear-gradient2);
      }

      .st1 {
        opacity: .8;
      }

      .st2 {
        display: none;
        fill: url(#linear-gradient);
        stroke: url(#linear-gradient1);
        stroke-width: 5px;
      }
    </style>
    <linearGradient id="linear-gradient" x1=".1" y1="13.2" x2="27.7" y2="17" gradientTransform="translate(0 28) scale(1 -1)" gradientUnits="userSpaceOnUse">
      <stop offset="0" stop-color="#0ea5ea"/>
      <stop offset="1" stop-color="#0bd1d1"/>
    </linearGradient>
    <linearGradient id="linear-gradient1" x1=".1" y1="13.2" x2="27.7" y2="17" gradientTransform="translate(0 28) scale(1 -1)" gradientUnits="userSpaceOnUse">
      <stop offset="0" stop-color="#0ea5ea"/>
      <stop offset="1" stop-color="#0bd1d1"/>
    </linearGradient>
    <linearGradient id="linear-gradient2" x1="3.1" y1="3.4" x2="21.9" y2="22.2" gradientTransform="translate(-.8 25.2) rotate(-90)" gradientUnits="userSpaceOnUse">
      <stop offset="0" stop-color="#d6de23"/>
      <stop offset="1" stop-color="#8bc53f"/>
    </linearGradient>
  </defs>
  <circle class="st2" cx="13.1" cy="13" r="10.5"/>
  <g class="st1">
    <path class="st0" d="M26.4,13.6c0,2-.3,3.7-1,5.3s-1.6,2.9-2.8,4l-5.4-4.6c.8-.7,1.4-1.3,1.9-2,.4-.6.6-1.3.6-2,0-1.8-1-2.7-3.1-2.7H7s0,8.6,0,8.6H.6V3.1h15.5c3.5,0,6,.9,7.7,2.7,1.7,1.8,2.6,4.4,2.6,7.7Z"/>
  </g>
</svg>