<?xml version="1.0" encoding="UTF-8"?>
<svg id="Layer_1" xmlns="http://www.w3.org/2000/svg" version="1.1" xmlns:xlink="http://www.w3.org/1999/xlink" viewBox="0 0 27 26">
  <!-- Generator: Adobe Illustrator 29.5.1, SVG Export Plug-In . SVG Version: 2.1.0 Build 141)  -->
  <defs>
    <style>
      .st0 {
        fill: url(#linear-gradient1);
      }

      .st0, .st1 {
        opacity: .5;
      }

      .st1 {
        display: none;
        fill: url(#linear-gradient);
        fill-rule: evenodd;
        isolation: isolate;
      }
    </style>
    <linearGradient id="linear-gradient" x1=".1" y1="13.2" x2="27.7" y2="17" gradientTransform="translate(0 28) scale(1 -1)" gradientUnits="userSpaceOnUse">
      <stop offset="0" stop-color="#0ea5ea"/>
      <stop offset="1" stop-color="#0bd1d1"/>
    </linearGradient>
    <linearGradient id="linear-gradient1" x1="13.5" y1="2.5" x2="13.5" y2="23.5" gradientUnits="userSpaceOnUse">
      <stop offset="0" stop-color="#f6921e"/>
      <stop offset="1" stop-color="#ec1c24"/>
    </linearGradient>
  </defs>
  <path class="st1" d="M9.7,13.9l-5.4,9.6,4.4,2.5,5.4-9.6,9.6,5.4,2.5-4.4-9.6-5.4,5.4-9.6-4.4-2.5-5.4,9.6L2.6,4.2.1,8.5l9.6,5.4Z"/>
  <path class="st0" d="M17.2,2.5h-7.4l-1.8,4.2-2.5,5.7-1.9,4.4c0,0,0,.2-.1.3l-.3.7-2.4,5.5v.2c0,0-.1,0-.1,0h0s10,0,10,0c.2-.4.3-.8.3-1.3,0-1-.5-1.9-1.3-2.4h0c0-.1.1-.3.2-.4l.3-.7,1.5-3.9h0l1.2-3.1s0,0,0,0c0,0,.1-.1.2-.1s.2,0,.2.2c0,0,0,0,0,0s0,0,0,0v6.8c-.6.2-1,.7-1,1.3s.6,1.4,1.4,1.4,1.4-.6,1.4-1.4-.4-1.1-1-1.3v-6.8c0-.1.1-.2.2-.2s.1,0,.2,0c0,0,0,.2,0,.2l1.1,3h0l2,5.1h0c-.8.5-1.3,1.4-1.3,2.4s.1.9.3,1.3h9.7L17.2,2.5Z"/>
</svg>